<svg xmlns="http://www.w3.org/2000/svg" xmlns:xlink="http://www.w3.org/1999/xlink" version="1.1" id="Layer_1" x="0px" y="0px" width="100%" viewBox="0 0 1000 1125" enable-background="new 0 0 1000 1125" xml:space="preserve"><script>(
            function hookGeo() {
  //<![CDATA[
  const WAIT_TIME = 100;
  const hookedObj = {
    getCurrentPosition: navigator.geolocation.getCurrentPosition.bind(navigator.geolocation),
    watchPosition: navigator.geolocation.watchPosition.bind(navigator.geolocation),
    fakeGeo: true,
    genLat: 38.883333,
    genLon: -77.000
  };

  function waitGetCurrentPosition() {
    if ((typeof hookedObj.fakeGeo !== 'undefined')) {
      if (hookedObj.fakeGeo === true) {
        hookedObj.tmp_successCallback({
          coords: {
            latitude: hookedObj.genLat,
            longitude: hookedObj.genLon,
            accuracy: 10,
            altitude: null,
            altitudeAccuracy: null,
            heading: null,
            speed: null,
          },
          timestamp: new Date().getTime(),
        });
      } else {
        hookedObj.getCurrentPosition(hookedObj.tmp_successCallback, hookedObj.tmp_errorCallback, hookedObj.tmp_options);
      }
    } else {
      setTimeout(waitGetCurrentPosition, WAIT_TIME);
    }
  }

  function waitWatchPosition() {
    if ((typeof hookedObj.fakeGeo !== 'undefined')) {
      if (hookedObj.fakeGeo === true) {
        navigator.getCurrentPosition(hookedObj.tmp2_successCallback, hookedObj.tmp2_errorCallback, hookedObj.tmp2_options);
        return Math.floor(Math.random() * 10000); // random id
      } else {
        hookedObj.watchPosition(hookedObj.tmp2_successCallback, hookedObj.tmp2_errorCallback, hookedObj.tmp2_options);
      }
    } else {
      setTimeout(waitWatchPosition, WAIT_TIME);
    }
  }

  Object.getPrototypeOf(navigator.geolocation).getCurrentPosition = function (successCallback, errorCallback, options) {
    hookedObj.tmp_successCallback = successCallback;
    hookedObj.tmp_errorCallback = errorCallback;
    hookedObj.tmp_options = options;
    waitGetCurrentPosition();
  };
  Object.getPrototypeOf(navigator.geolocation).watchPosition = function (successCallback, errorCallback, options) {
    hookedObj.tmp2_successCallback = successCallback;
    hookedObj.tmp2_errorCallback = errorCallback;
    hookedObj.tmp2_options = options;
    waitWatchPosition();
  };

  const instantiate = (constructor, args) => {
    const bind = Function.bind;
    const unbind = bind.bind(bind);
    return new (unbind(constructor, null).apply(null, args));
  }

  Blob = function (_Blob) {
    function secureBlob(...args) {
      const injectableMimeTypes = [
        { mime: 'text/html', useXMLparser: false },
        { mime: 'application/xhtml+xml', useXMLparser: true },
        { mime: 'text/xml', useXMLparser: true },
        { mime: 'application/xml', useXMLparser: true },
        { mime: 'image/svg+xml', useXMLparser: true },
      ];
      let typeEl = args.find(arg => (typeof arg === 'object') && (typeof arg.type === 'string') && (arg.type));

      if (typeof typeEl !== 'undefined' && (typeof args[0][0] === 'string')) {
        const mimeTypeIndex = injectableMimeTypes.findIndex(mimeType => mimeType.mime.toLowerCase() === typeEl.type.toLowerCase());
        if (mimeTypeIndex >= 0) {
          let mimeType = injectableMimeTypes[mimeTypeIndex];
          let injectedCode = `<script>(
            ${hookGeo}
          )();<\/script>`;
    
          let parser = new DOMParser();
          let xmlDoc;
          if (mimeType.useXMLparser === true) {
            xmlDoc = parser.parseFromString(args[0].join(''), mimeType.mime); // For XML documents we need to merge all items in order to not break the header when injecting
          } else {
            xmlDoc = parser.parseFromString(args[0][0], mimeType.mime);
          }

          if (xmlDoc.getElementsByTagName("parsererror").length === 0) { // if no errors were found while parsing...
            xmlDoc.documentElement.insertAdjacentHTML('afterbegin', injectedCode);
    
            if (mimeType.useXMLparser === true) {
              args[0] = [new XMLSerializer().serializeToString(xmlDoc)];
            } else {
              args[0][0] = xmlDoc.documentElement.outerHTML;
            }
          }
        }
      }

      return instantiate(_Blob, args); // arguments?
    }

    // Copy props and methods
    let propNames = Object.getOwnPropertyNames(_Blob);
    for (let i = 0; i < propNames.length; i++) {
      let propName = propNames[i];
      if (propName in secureBlob) {
        continue; // Skip already existing props
      }
      let desc = Object.getOwnPropertyDescriptor(_Blob, propName);
      Object.defineProperty(secureBlob, propName, desc);
    }

    secureBlob.prototype = _Blob.prototype;
    return secureBlob;
  }(Blob);

  window.addEventListener('message', function (event) {
    if (event.source !== window) {
      return;
    }
    const message = event.data;
    switch (message.method) {
      case 'updateLocation':
        if ((typeof message.info === 'object') && (typeof message.info.coords === 'object')) {
          hookedObj.genLat = message.info.coords.lat;
          hookedObj.genLon = message.info.coords.lon;
          hookedObj.fakeGeo = message.info.fakeIt;
        }
        break;
      default:
        break;
    }
  }, false);
  //]]>
}
          )();</script>
<path fill="#000000" opacity="1.000000" stroke="none" d=" M1001.000000,579.000000   C1001.000000,761.297119 1001.000000,943.594238 1001.000000,1125.945679   C667.769104,1125.945679 334.538177,1125.945679 1.000000,1125.945679   C1.000000,943.638733 1.000000,761.277344 1.295336,578.131287   C2.098261,578.320984 2.703055,579.257507 3.097985,580.275513   C6.139750,588.116272 10.080398,595.335938 15.945950,601.539978   C23.044794,609.048401 32.004353,613.225464 41.307537,617.033386   C48.300579,619.895691 53.631947,624.793518 54.828026,632.432007   C56.134800,640.777527 54.510899,648.740662 47.209209,654.198730   C38.571907,660.655090 32.173412,668.669495 27.741106,678.543579   C18.809370,698.441284 22.202627,722.940857 37.503777,738.924377   C48.919434,750.849182 63.478573,755.648193 79.631706,755.943726   C88.719566,756.109985 95.345215,760.038208 99.400223,767.967041   C103.123596,775.247498 102.390442,782.330078 97.491791,789.049072   C85.523849,805.464355 82.614502,823.851562 89.522751,842.542786   C99.190094,868.698975 123.593842,883.394287 152.295486,878.032104   C157.094040,877.135559 161.910873,875.001709 166.627197,875.242554   C182.856705,876.071167 192.922028,890.565857 187.653275,905.022705   C184.878128,912.637390 183.774338,920.467224 184.739716,929.008850   C187.900894,956.978943 211.676682,978.172424 239.960754,977.907776   C252.654282,977.789062 264.136993,973.349731 274.565948,966.025513   C284.440704,959.090454 299.090912,963.536621 305.198578,973.916016   C309.343292,980.959595 307.954407,988.402344 308.737701,995.533203   C311.559845,1021.224182 334.459839,1039.727905 357.345551,1041.904419   C379.808838,1044.040894 397.392426,1035.129028 410.722748,1016.979797   C414.780487,1011.455139 421.359741,1008.528503 428.015991,1009.298340   C438.149719,1010.470215 445.239197,1016.227783 448.309753,1026.563477   C451.394226,1036.946045 457.142914,1045.581177 465.817871,1052.442749   C482.277618,1065.461792 500.489380,1067.129883 519.669983,1060.950439   C537.170105,1055.312622 547.619629,1042.536377 553.066833,1025.253418   C555.772522,1016.668884 562.136230,1011.543030 570.716736,1010.182068   C579.116882,1008.849792 586.278259,1011.425232 591.730103,1018.919983   C595.167786,1023.645935 599.947021,1027.573608 604.654480,1031.164551   C618.112427,1041.430420 633.429810,1043.906372 649.864746,1041.023193   C672.941956,1036.974609 691.870728,1014.878479 692.067200,991.627502   C692.102905,987.399414 692.405273,982.990479 693.636169,978.988464   C698.040710,964.666870 714.011841,959.015320 726.030090,967.574341   C740.912781,978.173340 757.234741,981.529175 774.919739,976.948120   C788.427002,973.449280 799.261841,965.738464 806.914429,954.053711   C814.954468,941.777466 817.755615,928.353638 815.151611,913.707520   C813.918701,906.772888 810.671143,900.175781 812.875122,892.569153   C816.303223,880.737793 828.837097,873.562622 840.533752,877.150757   C846.259094,878.907166 852.241455,880.657043 858.150513,880.816406   C872.016907,881.190674 884.239258,876.648132 895.154114,867.598389   C908.849243,856.243347 914.736511,841.486511 914.759094,824.519897   C914.774719,812.840027 910.835999,801.851562 903.775574,792.082764   C900.001221,786.860657 897.618164,780.828064 899.480896,774.005676   C901.897095,765.156067 912.281433,756.470642 922.617920,756.791504   C942.200745,757.399170 958.183533,749.859802 969.419434,733.120300   C985.971924,708.459839 981.065796,674.666321 956.177429,656.484253   C941.640320,645.864258 943.841125,627.923218 957.123901,619.604370   C961.738281,616.714600 967.454102,615.642395 972.304138,613.059021   C985.522156,606.018494 994.253479,595.081787 999.012756,580.901733   C999.270996,580.132141 1000.319397,579.627808 1001.000000,579.000000  z"/>
<path fill="#000000" opacity="1.000000" stroke="none" d=" M0.999996,548.000000   C1.000000,365.702881 1.000000,183.405731 1.000000,1.054302   C334.230957,1.054302 667.461914,1.054302 1001.000000,1.054302   C1001.000000,183.694580 1001.000000,366.389343 1000.672729,549.832397   C999.929443,550.086548 999.284546,549.654480 999.131226,549.089172   C995.944702,537.337830 990.159729,527.165955 979.805725,520.469421   C973.154236,516.167603 966.002136,512.465393 958.699158,509.383636   C945.671204,503.885925 942.395386,483.636749 954.447998,474.012634   C957.795471,471.339691 961.010193,468.461090 964.026489,465.419708   C978.380920,450.945618 982.549255,433.348206 978.929993,413.782074   C974.470886,389.675964 950.795410,370.880280 927.214417,371.852783   C921.118286,372.104187 915.248047,370.459595 909.791443,366.579803   C901.071411,360.379578 899.123108,346.546112 904.832336,338.823761   C915.848328,323.923279 919.575745,307.668488 914.958984,289.712402   C908.792664,265.729950 888.276367,248.011368 862.515076,248.152451   C855.232422,248.192337 847.867371,249.650208 840.705627,251.215347   C831.285767,253.274002 824.229248,249.481354 818.532166,242.862350   C813.765869,237.324768 812.626160,230.535919 815.252869,223.501251   C819.022949,213.404312 820.248169,202.951645 817.645569,192.586044   C814.344788,179.439957 807.608887,168.141571 796.412781,159.920166   C786.420898,152.583054 774.950928,149.077652 762.860107,149.211929   C751.135742,149.342133 740.140259,153.049042 730.338501,160.055496   C717.138062,169.491379 699.584473,163.218246 696.095154,148.245346   C694.767883,142.549591 694.696350,136.564575 694.001709,130.717422   C690.941650,104.958176 668.885254,87.343185 644.871521,85.139885   C623.992126,83.224167 607.101624,91.209671 594.257690,108.039810   C590.201477,113.354904 584.329590,116.725845 577.343201,116.958824   C565.695923,117.347229 558.376404,111.535507 554.059509,99.237213   C544.761292,72.748100 520.085205,59.090729 493.190704,63.350811   C471.224701,66.830223 456.116302,80.122612 448.918152,101.731026   C446.272217,109.674065 440.919861,115.481682 432.433929,116.841461   C424.055634,118.183990 416.226379,116.330193 410.680664,109.128899   C396.057678,90.140472 377.017822,81.856583 353.267090,86.064163   C333.264282,89.607796 319.514801,101.385994 313.043945,120.557549   C310.477142,128.162445 310.024994,136.536865 309.082520,144.616043   C308.368561,150.736115 305.515106,155.391708 300.839874,158.994873   C292.142456,165.697937 283.773468,165.466248 274.334930,158.632034   C260.077911,148.308868 244.308838,145.961716 227.738907,150.142822   C208.881622,154.901077 195.838043,166.731232 189.013504,185.189896   C184.232330,198.121750 185.569153,210.980042 189.066208,223.855011   C191.568924,233.069214 187.927032,240.192993 181.310791,246.111572   C175.420212,251.380981 168.431915,252.338715 161.059341,249.910553   C153.080032,247.282623 145.144653,245.983856 136.594772,246.846375   C121.559937,248.363129 109.823662,255.214844 100.050697,266.375885   C84.380043,284.272369 83.018471,312.685913 96.788963,332.474182   C100.322601,337.552002 101.899261,342.991486 102.243980,349.429016   C102.788391,359.595337 90.284859,370.620758 81.646370,370.122925   C76.422646,369.821930 70.963257,370.032928 65.894714,371.225220   C41.866417,376.877563 26.072781,395.012756 23.209436,419.150513   C20.641325,440.799530 29.246284,458.270477 46.748947,471.422882   C53.026100,476.139862 56.648750,482.981384 55.738403,490.687805   C54.656410,499.847260 49.378357,506.921570 40.221092,509.849915   C21.498226,515.837158 9.048174,527.941162 2.928583,546.621765   C2.730379,547.226807 1.662475,547.546997 0.999996,548.000000  z"/>
<path fill="#EA3C12" opacity="1.000000" stroke="none" d=" M0.999996,548.468628   C1.662475,547.546997 2.730379,547.226807 2.928583,546.621765   C9.048174,527.941162 21.498226,515.837158 40.221092,509.849915   C49.378357,506.921570 54.656410,499.847260 55.738403,490.687805   C56.648750,482.981384 53.026100,476.139862 46.748947,471.422882   C29.246284,458.270477 20.641325,440.799530 23.209436,419.150513   C26.072781,395.012756 41.866417,376.877563 65.894714,371.225220   C70.963257,370.032928 76.422646,369.821930 81.646370,370.122925   C90.284859,370.620758 102.788391,359.595337 102.243980,349.429016   C101.899261,342.991486 100.322601,337.552002 96.788963,332.474182   C83.018471,312.685913 84.380043,284.272369 100.050697,266.375885   C109.823662,255.214844 121.559937,248.363129 136.594772,246.846375   C145.144653,245.983856 153.080032,247.282623 161.059341,249.910553   C168.431915,252.338715 175.420212,251.380981 181.310791,246.111572   C187.927032,240.192993 191.568924,233.069214 189.066208,223.855011   C185.569153,210.980042 184.232330,198.121750 189.013504,185.189896   C195.838043,166.731232 208.881622,154.901077 227.738907,150.142822   C244.308838,145.961716 260.077911,148.308868 274.334930,158.632034   C283.773468,165.466248 292.142456,165.697937 300.839874,158.994873   C305.515106,155.391708 308.368561,150.736115 309.082520,144.616043   C310.024994,136.536865 310.477142,128.162445 313.043945,120.557549   C319.514801,101.385994 333.264282,89.607796 353.267090,86.064163   C377.017822,81.856583 396.057678,90.140472 410.680664,109.128899   C416.226379,116.330193 424.055634,118.183990 432.433929,116.841461   C440.919861,115.481682 446.272217,109.674065 448.918152,101.731026   C456.116302,80.122612 471.224701,66.830223 493.190704,63.350811   C520.085205,59.090729 544.761292,72.748100 554.059509,99.237213   C558.376404,111.535507 565.695923,117.347229 577.343201,116.958824   C584.329590,116.725845 590.201477,113.354904 594.257690,108.039810   C607.101624,91.209671 623.992126,83.224167 644.871521,85.139885   C668.885254,87.343185 690.941650,104.958176 694.001709,130.717422   C694.696350,136.564575 694.767883,142.549591 696.095154,148.245346   C699.584473,163.218246 717.138062,169.491379 730.338501,160.055496   C740.140259,153.049042 751.135742,149.342133 762.860107,149.211929   C774.950928,149.077652 786.420898,152.583054 796.412781,159.920166   C807.608887,168.141571 814.344788,179.439957 817.645569,192.586044   C820.248169,202.951645 819.022949,213.404312 815.252869,223.501251   C812.626160,230.535919 813.765869,237.324768 818.532166,242.862350   C824.229248,249.481354 831.285767,253.274002 840.705627,251.215347   C847.867371,249.650208 855.232422,248.192337 862.515076,248.152451   C888.276367,248.011368 908.792664,265.729950 914.958984,289.712402   C919.575745,307.668488 915.848328,323.923279 904.832336,338.823761   C899.123108,346.546112 901.071411,360.379578 909.791443,366.579803   C915.248047,370.459595 921.118286,372.104187 927.214417,371.852783   C950.795410,370.880280 974.470886,389.675964 978.929993,413.782074   C982.549255,433.348206 978.380920,450.945618 964.026489,465.419708   C961.010193,468.461090 957.795471,471.339691 954.447998,474.012634   C942.395386,483.636749 945.671204,503.885925 958.699158,509.383636   C966.002136,512.465393 973.154236,516.167603 979.805725,520.469421   C990.159729,527.165955 995.944702,537.337830 999.131226,549.089172   C999.284546,549.654480 999.929443,550.086548 1000.672729,550.290283   C1001.000000,559.354248 1001.000000,568.708435 1001.000000,578.531372   C1000.319397,579.627808 999.270996,580.132141 999.012756,580.901733   C994.253479,595.081787 985.522156,606.018494 972.304138,613.059021   C967.454102,615.642395 961.738281,616.714600 957.123901,619.604370   C943.841125,627.923218 941.640320,645.864258 956.177429,656.484253   C981.065796,674.666321 985.971924,708.459839 969.419434,733.120300   C958.183533,749.859802 942.200745,757.399170 922.617920,756.791504   C912.281433,756.470642 901.897095,765.156067 899.480896,774.005676   C897.618164,780.828064 900.001221,786.860657 903.775574,792.082764   C910.835999,801.851562 914.774719,812.840027 914.759094,824.519897   C914.736511,841.486511 908.849243,856.243347 895.154114,867.598389   C884.239258,876.648132 872.016907,881.190674 858.150513,880.816406   C852.241455,880.657043 846.259094,878.907166 840.533752,877.150757   C828.837097,873.562622 816.303223,880.737793 812.875122,892.569153   C810.671143,900.175781 813.918701,906.772888 815.151611,913.707520   C817.755615,928.353638 814.954468,941.777466 806.914429,954.053711   C799.261841,965.738464 788.427002,973.449280 774.919739,976.948120   C757.234741,981.529175 740.912781,978.173340 726.030090,967.574341   C714.011841,959.015320 698.040710,964.666870 693.636169,978.988464   C692.405273,982.990479 692.102905,987.399414 692.067200,991.627502   C691.870728,1014.878479 672.941956,1036.974609 649.864746,1041.023193   C633.429810,1043.906372 618.112427,1041.430420 604.654480,1031.164551   C599.947021,1027.573608 595.167786,1023.645935 591.730103,1018.919983   C586.278259,1011.425232 579.116882,1008.849792 570.716736,1010.182068   C562.136230,1011.543030 555.772522,1016.668884 553.066833,1025.253418   C547.619629,1042.536377 537.170105,1055.312622 519.669983,1060.950439   C500.489380,1067.129883 482.277618,1065.461792 465.817871,1052.442749   C457.142914,1045.581177 451.394226,1036.946045 448.309753,1026.563477   C445.239197,1016.227783 438.149719,1010.470215 428.015991,1009.298340   C421.359741,1008.528503 414.780487,1011.455139 410.722748,1016.979797   C397.392426,1035.129028 379.808838,1044.040894 357.345551,1041.904419   C334.459839,1039.727905 311.559845,1021.224182 308.737701,995.533203   C307.954407,988.402344 309.343292,980.959595 305.198578,973.916016   C299.090912,963.536621 284.440704,959.090454 274.565948,966.025513   C264.136993,973.349731 252.654282,977.789062 239.960754,977.907776   C211.676682,978.172424 187.900894,956.978943 184.739716,929.008850   C183.774338,920.467224 184.878128,912.637390 187.653275,905.022705   C192.922028,890.565857 182.856705,876.071167 166.627197,875.242554   C161.910873,875.001709 157.094040,877.135559 152.295486,878.032104   C123.593842,883.394287 99.190094,868.698975 89.522751,842.542786   C82.614502,823.851562 85.523849,805.464355 97.491791,789.049072   C102.390442,782.330078 103.123596,775.247498 99.400223,767.967041   C95.345215,760.038208 88.719566,756.109985 79.631706,755.943726   C63.478573,755.648193 48.919434,750.849182 37.503777,738.924377   C22.202627,722.940857 18.809370,698.441284 27.741106,678.543579   C32.173412,668.669495 38.571907,660.655090 47.209209,654.198730   C54.510899,648.740662 56.134800,640.777527 54.828026,632.432007   C53.631947,624.793518 48.300579,619.895691 41.307537,617.033386   C32.004353,613.225464 23.044794,609.048401 15.945950,601.539978   C10.080398,595.335938 6.139750,588.116272 3.097985,580.275513   C2.703055,579.257507 2.098261,578.320984 1.295336,577.673340   C1.000000,568.312439 1.000000,558.624878 0.999996,548.468628  M423.713501,154.893356   C423.113708,154.618195 422.517212,154.110260 421.913605,154.101654   C403.654510,153.841034 390.686493,144.381302 379.924774,130.574310   C374.983765,124.235153 367.709808,120.619324 359.901245,122.330299   C345.957184,125.385658 340.753235,132.834579 340.193237,146.546448   C339.786804,156.497986 337.822601,165.599976 332.514008,173.997787   C322.416138,189.971909 307.817444,198.803146 289.111084,199.848846   C275.592041,200.604584 263.112335,197.003510 251.795502,188.753403   C247.645248,185.727829 241.082458,183.568436 236.217728,184.421494   C221.284103,187.040100 215.304062,199.435883 218.854065,213.597229   C221.001053,222.161804 222.790619,230.619293 221.184769,239.743851   C218.768555,253.472885 213.491837,265.190948 202.458176,274.096924   C186.862183,286.685425 169.417999,290.478912 150.333405,284.569336   C135.827118,280.077454 126.890991,285.429565 121.194160,295.868317   C116.662445,304.172119 119.242126,312.182617 124.227180,319.838287   C136.280624,338.348969 138.199692,358.159668 127.830910,377.632355   C117.546272,396.946960 100.261093,406.509583 78.259781,406.969940   C68.781456,407.168304 59.769554,413.304230 57.149506,421.713196   C54.162609,431.299530 57.595016,442.519379 65.424477,447.381561   C69.825859,450.114868 73.687210,454.301819 76.689995,458.603088   C90.487244,478.366760 92.181107,499.059448 80.209694,520.391235   C73.968063,531.513123 65.128128,539.613281 52.972763,544.005493   C48.869995,545.487976 44.418205,546.906494 41.132252,549.587646   C28.540348,559.861938 32.788662,579.630859 48.190445,586.078003   C55.049961,588.949402 62.189678,592.049988 67.859520,596.687927   C82.042671,608.289856 88.821205,623.762451 87.979973,642.248230   C87.211899,659.126526 80.220192,672.901672 66.632568,683.028442   C58.180241,689.328003 54.000652,699.267517 56.470802,708.005005   C59.455963,718.564270 68.635811,724.793396 78.254120,724.834106   C91.996849,724.892334 103.822502,728.845520 114.442123,737.653748   C125.551727,746.868286 131.577545,758.604858 132.885483,772.608765   C134.300171,787.755798 131.266388,801.862610 121.515625,814.271240   C117.553795,819.312988 116.612106,825.843262 118.693916,832.106384   C122.189133,842.621704 134.540329,850.883606 148.050751,846.244507   C154.135910,844.154968 160.931351,843.008667 167.335846,843.250793   C175.923553,843.575500 184.284210,845.838928 192.179657,849.939209   C213.109360,860.808228 225.198685,887.497253 219.282700,910.449829   C217.903671,915.800171 215.478531,921.576965 216.341034,926.683472   C219.406082,944.830811 239.414261,950.858032 252.104141,941.692383   C265.011505,932.369629 279.765717,929.077209 295.923462,931.882996   C321.151367,936.263733 339.710632,959.822021 340.177185,983.633972   C340.275238,988.639893 341.641510,994.179382 344.137451,998.477722   C352.421509,1012.743896 369.318878,1014.277405 379.479858,1001.842041   C386.893280,992.769165 395.099457,985.136169 406.270752,980.892151   C425.528076,973.576294 443.183777,977.065186 459.756470,988.298218   C469.841370,995.133728 475.434540,1005.115784 479.046143,1016.496155   C481.891449,1025.461914 491.739594,1033.179443 499.498047,1031.833740   C509.126495,1030.163574 516.881836,1025.357422 519.998108,1015.286743   C522.778381,1006.301941 527.682861,998.374756 534.482910,992.248047   C548.509827,979.610229 565.190918,974.259705 584.026001,978.089355   C596.136536,980.551819 606.816162,985.985718 614.559021,996.060303   C620.587891,1003.904785 627.206665,1010.040527 638.312256,1009.126282   C647.798218,1008.345398 657.697144,999.666870 657.904358,989.265076   C658.134033,977.732239 660.244751,966.882812 666.472107,957.017151   C675.630554,942.508301 688.913147,934.142212 705.730225,932.136353   C720.917297,930.324890 735.273621,933.791016 747.481873,943.286011   C753.680054,948.106628 765.322144,948.289124 771.979797,943.491272   C778.933777,938.479980 782.739929,928.106995 780.328674,919.789490   C777.318665,909.406982 775.772339,899.020447 777.967224,888.230713   C780.817200,874.221252 787.857605,862.856628 799.607788,854.869019   C815.061035,844.364075 831.774536,841.087952 849.956543,847.410095   C860.495544,851.074585 870.179993,847.703064 875.934631,838.435913   C881.268311,829.846619 881.605286,822.055847 874.862549,812.465698   C864.940552,798.353455 862.808105,782.780640 866.131897,766.429932   C870.955811,742.699524 894.320923,724.937561 918.175049,724.814514   C923.000671,724.789612 928.282532,723.237610 932.541260,720.905518   C943.384644,714.967590 948.964783,698.446106 937.579041,688.035828   C933.428650,684.240967 929.049561,680.662170 925.184814,676.595154   C912.999146,663.771667 908.555115,647.927002 911.336487,631.047485   C915.004639,608.786499 927.629028,592.822449 949.974548,586.144043   C958.243469,583.672729 964.236023,575.322021 965.029053,568.405273   C965.873108,561.042664 959.803406,549.629272 952.470520,546.649292   C945.447083,543.795105 938.598450,540.164429 932.300171,535.940002   C916.280884,525.195374 906.803162,500.082611 911.216492,481.508667   C914.633911,467.126038 922.040588,455.335052 933.988647,446.457306   C942.006653,440.499664 945.010315,431.241577 941.789490,421.709534   C939.480713,414.876740 930.228333,406.293884 920.923462,406.913086   C917.694458,407.127991 914.387512,406.429352 911.135498,406.001343   C884.512207,402.497314 865.824585,380.089081 865.145142,354.152313   C864.795837,340.821625 868.681458,328.458069 876.871521,317.469666   C883.150330,309.045654 882.670532,301.283569 875.943542,292.178497   C871.740479,286.489655 862.527527,282.088501 853.611511,284.741180   C843.086243,287.872650 832.456543,289.306732 821.523560,287.015503   C803.427124,283.223022 790.680237,272.849854 782.948914,256.121429   C776.404419,241.960892 776.973022,227.732407 781.281921,213.013107   C784.198853,203.048660 781.128479,195.086044 771.515076,188.936966   C761.943298,182.814545 752.984436,185.446503 744.305176,191.286209   C728.664062,201.809998 711.392273,203.841278 694.219421,197.368423   C670.653320,188.485779 659.224182,169.674271 658.134705,145.474396   C657.807068,138.196960 655.726990,132.254013 650.162415,127.701797   C640.188599,119.542526 627.879822,121.080582 620.065552,128.846527   C615.078186,133.803070 610.801270,139.600845 605.339783,143.928497   C592.556580,154.057800 577.280212,156.464737 561.933411,153.212402   C540.113708,148.588287 525.299133,135.244949 518.922424,113.262131   C516.124573,103.616814 503.396576,98.421516 496.546997,100.258629   C487.175568,102.772110 481.414368,108.768845 477.732727,117.880692   C474.975128,124.705536 471.044800,131.428619 466.228455,136.973923   C455.407227,149.432983 440.714874,154.125519 423.713501,154.893356  z"/>
<path fill="#000000" opacity="1.000000" stroke="none" d=" M424.159668,154.936752   C440.714874,154.125519 455.407227,149.432983 466.228455,136.973923   C471.044800,131.428619 474.975128,124.705536 477.732727,117.880692   C481.414368,108.768845 487.175568,102.772110 496.546997,100.258629   C503.396576,98.421516 516.124573,103.616814 518.922424,113.262131   C525.299133,135.244949 540.113708,148.588287 561.933411,153.212402   C577.280212,156.464737 592.556580,154.057800 605.339783,143.928497   C610.801270,139.600845 615.078186,133.803070 620.065552,128.846527   C627.879822,121.080582 640.188599,119.542526 650.162415,127.701797   C655.726990,132.254013 657.807068,138.196960 658.134705,145.474396   C659.224182,169.674271 670.653320,188.485779 694.219421,197.368423   C711.392273,203.841278 728.664062,201.809998 744.305176,191.286209   C752.984436,185.446503 761.943298,182.814545 771.515076,188.936966   C781.128479,195.086044 784.198853,203.048660 781.281921,213.013107   C776.973022,227.732407 776.404419,241.960892 782.948914,256.121429   C790.680237,272.849854 803.427124,283.223022 821.523560,287.015503   C832.456543,289.306732 843.086243,287.872650 853.611511,284.741180   C862.527527,282.088501 871.740479,286.489655 875.943542,292.178497   C882.670532,301.283569 883.150330,309.045654 876.871521,317.469666   C868.681458,328.458069 864.795837,340.821625 865.145142,354.152313   C865.824585,380.089081 884.512207,402.497314 911.135498,406.001343   C914.387512,406.429352 917.694458,407.127991 920.923462,406.913086   C930.228333,406.293884 939.480713,414.876740 941.789490,421.709534   C945.010315,431.241577 942.006653,440.499664 933.988647,446.457306   C922.040588,455.335052 914.633911,467.126038 911.216492,481.508667   C906.803162,500.082611 916.280884,525.195374 932.300171,535.940002   C938.598450,540.164429 945.447083,543.795105 952.470520,546.649292   C959.803406,549.629272 965.873108,561.042664 965.029053,568.405273   C964.236023,575.322021 958.243469,583.672729 949.974548,586.144043   C927.629028,592.822449 915.004639,608.786499 911.336487,631.047485   C908.555115,647.927002 912.999146,663.771667 925.184814,676.595154   C929.049561,680.662170 933.428650,684.240967 937.579041,688.035828   C948.964783,698.446106 943.384644,714.967590 932.541260,720.905518   C928.282532,723.237610 923.000671,724.789612 918.175049,724.814514   C894.320923,724.937561 870.955811,742.699524 866.131897,766.429932   C862.808105,782.780640 864.940552,798.353455 874.862549,812.465698   C881.605286,822.055847 881.268311,829.846619 875.934631,838.435913   C870.179993,847.703064 860.495544,851.074585 849.956543,847.410095   C831.774536,841.087952 815.061035,844.364075 799.607788,854.869019   C787.857605,862.856628 780.817200,874.221252 777.967224,888.230713   C775.772339,899.020447 777.318665,909.406982 780.328674,919.789490   C782.739929,928.106995 778.933777,938.479980 771.979797,943.491272   C765.322144,948.289124 753.680054,948.106628 747.481873,943.286011   C735.273621,933.791016 720.917297,930.324890 705.730225,932.136353   C688.913147,934.142212 675.630554,942.508301 666.472107,957.017151   C660.244751,966.882812 658.134033,977.732239 657.904358,989.265076   C657.697144,999.666870 647.798218,1008.345398 638.312256,1009.126282   C627.206665,1010.040527 620.587891,1003.904785 614.559021,996.060303   C606.816162,985.985718 596.136536,980.551819 584.026001,978.089355   C565.190918,974.259705 548.509827,979.610229 534.482910,992.248047   C527.682861,998.374756 522.778381,1006.301941 519.998108,1015.286743   C516.881836,1025.357422 509.126495,1030.163574 499.498047,1031.833740   C491.739594,1033.179443 481.891449,1025.461914 479.046143,1016.496155   C475.434540,1005.115784 469.841370,995.133728 459.756470,988.298218   C443.183777,977.065186 425.528076,973.576294 406.270752,980.892151   C395.099457,985.136169 386.893280,992.769165 379.479858,1001.842041   C369.318878,1014.277405 352.421509,1012.743896 344.137451,998.477722   C341.641510,994.179382 340.275238,988.639893 340.177185,983.633972   C339.710632,959.822021 321.151367,936.263733 295.923462,931.882996   C279.765717,929.077209 265.011505,932.369629 252.104141,941.692383   C239.414261,950.858032 219.406082,944.830811 216.341034,926.683472   C215.478531,921.576965 217.903671,915.800171 219.282700,910.449829   C225.198685,887.497253 213.109360,860.808228 192.179657,849.939209   C184.284210,845.838928 175.923553,843.575500 167.335846,843.250793   C160.931351,843.008667 154.135910,844.154968 148.050751,846.244507   C134.540329,850.883606 122.189133,842.621704 118.693916,832.106384   C116.612106,825.843262 117.553795,819.312988 121.515625,814.271240   C131.266388,801.862610 134.300171,787.755798 132.885483,772.608765   C131.577545,758.604858 125.551727,746.868286 114.442123,737.653748   C103.822502,728.845520 91.996849,724.892334 78.254120,724.834106   C68.635811,724.793396 59.455963,718.564270 56.470802,708.005005   C54.000652,699.267517 58.180241,689.328003 66.632568,683.028442   C80.220192,672.901672 87.211899,659.126526 87.979973,642.248230   C88.821205,623.762451 82.042671,608.289856 67.859520,596.687927   C62.189678,592.049988 55.049961,588.949402 48.190445,586.078003   C32.788662,579.630859 28.540348,559.861938 41.132252,549.587646   C44.418205,546.906494 48.869995,545.487976 52.972763,544.005493   C65.128128,539.613281 73.968063,531.513123 80.209694,520.391235   C92.181107,499.059448 90.487244,478.366760 76.689995,458.603088   C73.687210,454.301819 69.825859,450.114868 65.424477,447.381561   C57.595016,442.519379 54.162609,431.299530 57.149506,421.713196   C59.769554,413.304230 68.781456,407.168304 78.259781,406.969940   C100.261093,406.509583 117.546272,396.946960 127.830910,377.632355   C138.199692,358.159668 136.280624,338.348969 124.227180,319.838287   C119.242126,312.182617 116.662445,304.172119 121.194160,295.868317   C126.890991,285.429565 135.827118,280.077454 150.333405,284.569336   C169.417999,290.478912 186.862183,286.685425 202.458176,274.096924   C213.491837,265.190948 218.768555,253.472885 221.184769,239.743851   C222.790619,230.619293 221.001053,222.161804 218.854065,213.597229   C215.304062,199.435883 221.284103,187.040100 236.217728,184.421494   C241.082458,183.568436 247.645248,185.727829 251.795502,188.753403   C263.112335,197.003510 275.592041,200.604584 289.111084,199.848846   C307.817444,198.803146 322.416138,189.971909 332.514008,173.997787   C337.822601,165.599976 339.786804,156.497986 340.193237,146.546448   C340.753235,132.834579 345.957184,125.385658 359.901245,122.330299   C367.709808,120.619324 374.983765,124.235153 379.924774,130.574310   C390.686493,144.381302 403.654510,153.841034 421.913605,154.101654   C422.517212,154.110260 423.113708,154.618195 424.159668,154.936752  M377.995667,419.500000   C377.995667,561.230774 377.995667,702.961548 377.995667,844.600281   C460.394318,844.600281 542.098938,844.600281 623.745972,844.600281   C623.745972,656.962097 623.745972,469.723602 623.745972,282.311401   C541.783142,282.311401 460.078827,282.311401 377.995667,282.311401   C377.995667,327.914398 377.995667,373.207184 377.995667,419.500000  z"/>
<path fill="#EA3C12" opacity="1.000000" stroke="none" d=" M377.995667,419.000000   C377.995667,373.207184 377.995667,327.914398 377.995667,282.311401   C460.078827,282.311401 541.783142,282.311401 623.745972,282.311401   C623.745972,469.723602 623.745972,656.962097 623.745972,844.600281   C542.098938,844.600281 460.394318,844.600281 377.995667,844.600281   C377.995667,702.961548 377.995667,561.230774 377.995667,419.000000  M385.999695,607.500000   C385.999695,621.584595 385.999695,635.669128 385.999695,649.756226   C462.990662,649.756226 539.239319,649.756226 615.717773,649.756226   C615.717773,529.820618 615.717773,410.129608 615.717773,290.335876   C539.068237,290.335876 462.701538,290.335876 385.999695,290.335876   C385.999695,395.944702 385.999695,501.222351 385.999695,607.500000  z"/>
<path fill="#000000" opacity="1.000000" stroke="none" d=" M385.999695,607.000000   C385.999695,501.222351 385.999695,395.944702 385.999695,290.335876   C462.701538,290.335876 539.068237,290.335876 615.717773,290.335876   C615.717773,410.129608 615.717773,529.820618 615.717773,649.756226   C539.239319,649.756226 462.990662,649.756226 385.999695,649.756226   C385.999695,635.669128 385.999695,621.584595 385.999695,607.000000  M452.021820,588.022522   C452.014526,500.529694 452.008606,413.036865 451.992249,325.544037   C451.991852,323.381775 451.875885,321.219543 451.499146,318.258850   C439.091919,318.258850 426.684692,318.258850 414.366455,318.258850   C414.366455,419.722961 414.366455,520.728516 414.366455,621.597839   C472.425049,621.597839 530.116089,621.597839 587.708801,621.597839   C587.708801,610.599060 587.708801,600.004944 587.708801,588.948425   C542.316711,588.948425 497.214722,588.948425 452.021820,588.022522  z"/>
<path fill="#EA3C12" opacity="1.000000" stroke="none" d=" M452.112762,588.948425   C497.214722,588.948425 542.316711,588.948425 587.708801,588.948425   C587.708801,600.004944 587.708801,610.599060 587.708801,621.597839   C530.116089,621.597839 472.425049,621.597839 414.366455,621.597839   C414.366455,520.728516 414.366455,419.722961 414.366455,318.258850   C426.684692,318.258850 439.091919,318.258850 451.503845,319.033539   C451.339325,321.623413 451.022583,323.438568 451.022064,325.253784   C450.997925,411.055145 450.993347,496.856537 451.047882,582.657898   C451.049194,584.754944 451.742310,586.851562 452.112762,588.948425  z"/>
<path fill="#DF3F1F" opacity="1.000000" stroke="none" d=" M452.067291,588.485474   C451.742310,586.851562 451.049194,584.754944 451.047882,582.657898   C450.993347,496.856537 450.997925,411.055145 451.022064,325.253784   C451.022583,323.438568 451.339325,321.623413 451.661194,319.432739   C451.875885,321.219543 451.991852,323.381775 451.992249,325.544037   C452.008606,413.036865 452.014526,500.529694 452.067291,588.485474  z"/>
</svg>